<?xml version="1.0" standalone="no"?>
<!DOCTYPE svg PUBLIC "-//W3C//DTD SVG 20010904//EN"
 "http://www.w3.org/TR/2001/REC-SVG-20010904/DTD/svg10.dtd">
<svg version="1.0" xmlns="http://www.w3.org/2000/svg"
 width="1161.000000pt" height="507.000000pt" viewBox="0 0 1161.000000 507.000000"
 preserveAspectRatio="xMidYMid meet">

<g transform="translate(0.000000,507.000000) scale(0.100000,-0.100000)"
fill="#000000" stroke="none">
<path d="M3406 3392 c-8 -15 -54 -131 -101 -257 -48 -127 -90 -233 -94 -237
-3 -4 -74 -21 -156 -38 -83 -17 -182 -38 -221 -46 -77 -16 -114 -36 -114 -61
0 -18 158 -209 272 -329 l29 -31 -25 -74 c-14 -41 -43 -126 -65 -189 -37 -106
-39 -116 -24 -132 9 -10 28 -18 42 -18 40 1 170 35 224 59 27 11 55 21 62 21
7 0 43 13 80 30 70 31 95 36 111 21 45 -42 332 -83 386 -55 36 19 36 36 -4
152 l-33 94 30 24 c17 13 34 24 38 24 5 0 27 13 50 28 67 46 185 122 189 122
1 0 3 -28 4 -63 2 -120 69 -193 194 -212 101 -15 217 41 333 161 l64 66 7
-149 c4 -81 9 -168 11 -193 3 -25 2 -51 -3 -58 -8 -12 -194 -52 -245 -52 -15
0 -96 -13 -180 -29 -83 -16 -183 -33 -222 -38 -38 -5 -128 -20 -200 -32 -71
-12 -206 -36 -300 -52 -158 -27 -390 -69 -595 -107 -100 -18 -140 -36 -140
-61 0 -50 60 -52 275 -7 66 13 197 38 290 55 94 17 233 42 310 57 77 15 169
31 205 35 36 5 124 20 195 33 72 13 157 27 190 31 33 4 116 18 185 31 69 13
126 24 128 24 1 0 2 -5 2 -12 0 -10 -103 -153 -121 -168 -3 -3 -22 -29 -42
-58 -20 -29 -49 -70 -65 -90 -41 -54 -126 -190 -161 -259 -92 -180 -71 -312
54 -353 48 -16 97 -6 172 36 139 77 266 278 328 521 20 82 45 271 45 349 l0
62 93 15 c50 9 184 30 297 47 113 17 291 44 395 61 307 47 465 70 550 81 44 5
150 21 235 35 85 14 193 29 240 33 47 5 159 20 250 34 91 14 255 36 365 51
227 29 545 70 875 114 124 16 257 33 295 36 39 4 131 15 205 26 74 11 178 24
230 29 52 5 183 21 290 35 450 58 609 77 677 82 74 6 105 21 81 41 -13 10
-241 -10 -713 -64 -121 -13 -272 -29 -335 -34 -63 -5 -198 -21 -300 -35 -102
-14 -207 -25 -234 -25 -27 0 -77 -4 -110 -10 -134 -21 -296 -42 -389 -51 -54
-4 -186 -20 -295 -34 -108 -14 -303 -39 -432 -55 -129 -17 -316 -42 -415 -55
-99 -14 -214 -29 -255 -34 -41 -5 -140 -19 -220 -31 -80 -12 -237 -35 -350
-51 -113 -16 -293 -43 -400 -59 -107 -16 -229 -33 -270 -39 -41 -5 -126 -19
-189 -30 -134 -25 -165 -26 -158 -8 3 7 54 79 113 159 60 81 137 184 170 230
77 103 134 177 157 202 9 11 17 23 17 28 0 4 3 8 8 8 4 0 7 -35 8 -78 2 -177
63 -293 141 -268 10 3 33 33 51 65 72 131 196 276 261 306 39 17 40 17 75 -5
20 -12 42 -31 50 -42 17 -24 79 -40 126 -31 19 3 62 20 95 38 78 43 153 68
182 60 13 -3 44 -27 69 -53 44 -45 47 -47 103 -47 54 0 60 3 111 48 30 26 58
47 62 47 5 0 8 -11 8 -23 0 -32 30 -57 67 -57 22 0 43 13 84 53 109 105 185
166 243 192 92 42 122 22 136 -92 9 -74 22 -93 60 -93 22 0 39 15 88 75 109
132 182 176 270 161 41 -6 56 -23 103 -113 46 -89 82 -128 145 -159 111 -54
226 -16 449 150 169 126 287 238 278 263 -8 22 -35 14 -83 -22 -25 -19 -61
-46 -80 -60 -19 -14 -53 -39 -75 -56 -112 -85 -257 -176 -310 -196 -68 -25
-84 -26 -130 -9 -38 15 -51 28 -91 94 -88 145 -96 154 -153 180 -40 19 -63 23
-95 19 -67 -9 -147 -51 -213 -111 -33 -31 -66 -56 -71 -56 -6 0 -13 13 -17 28
-3 16 -21 44 -40 62 -27 26 -45 34 -84 38 -43 4 -62 -1 -124 -30 -40 -19 -101
-57 -136 -84 -124 -96 -108 -89 -121 -50 -6 19 -18 37 -26 40 -39 15 -62 3
-151 -79 -50 -47 -96 -85 -102 -85 -7 0 -26 16 -43 36 -82 93 -170 97 -330 16
-57 -29 -108 -52 -114 -52 -5 0 -26 16 -45 36 -18 20 -46 42 -61 50 -35 18
-106 18 -140 -1 -16 -8 -40 -21 -55 -29 -36 -20 -124 -116 -191 -209 -39 -55
-59 -74 -66 -67 -7 7 -11 74 -11 180 0 92 -3 171 -7 175 -4 4 -20 8 -35 8 -37
0 -104 -77 -323 -368 -58 -77 -107 -142 -110 -145 -3 -3 -30 -38 -60 -78 l-55
-73 -8 38 c-16 70 -2 330 22 408 24 78 20 102 -15 111 -37 9 -46 2 -83 -70
-119 -233 -297 -399 -412 -383 -118 16 -150 143 -74 290 25 47 25 50 9 68 -24
26 -43 23 -84 -12 -61 -52 -150 -119 -158 -119 -4 0 -23 -13 -42 -30 -19 -16
-39 -29 -43 -30 -5 0 -21 -9 -36 -19 -14 -11 -48 -31 -74 -44 -54 -29 -54 -30
-81 63 l-16 54 109 106 c59 58 137 139 171 180 35 41 66 77 70 80 17 13 18 41
3 56 -15 15 -42 16 -237 13 l-220 -4 -8 45 c-22 118 -81 387 -90 403 -6 11
-21 17 -43 17 -28 0 -37 -6 -49 -28z m68 -308 c15 -75 24 -140 19 -144 -9 -8
-163 -34 -169 -28 -2 2 10 40 27 84 17 43 42 112 57 152 15 39 30 72 33 72 3
0 18 -61 33 -136z m446 -203 c0 -21 -221 -251 -240 -251 -10 0 -12 7 -33 100
-29 123 -30 130 -14 136 8 3 68 9 133 13 65 4 127 9 137 10 9 0 17 -3 17 -8z
m-396 -43 c17 -58 66 -276 66 -288 -1 -14 -50 -57 -225 -198 -33 -26 -68 -51
-77 -55 -22 -8 -148 96 -148 121 0 9 18 67 41 127 22 61 54 147 70 192 34 92
18 82 164 101 101 13 105 13 109 0z m-354 -45 c0 -12 -103 -287 -110 -296 -4
-5 -49 40 -101 100 -51 59 -98 111 -104 115 -6 5 -6 10 0 16 13 12 136 42 177
43 18 0 53 6 78 13 58 17 60 17 60 9z m473 -396 c9 -30 17 -57 17 -61 0 -4
-56 -34 -124 -67 -110 -53 -127 -58 -150 -48 -37 17 -39 15 163 174 28 22 51
43 51 47 0 5 6 8 13 8 7 0 21 -24 30 -53z m-490 -124 l46 -37 -32 -28 c-18
-15 -36 -27 -41 -28 -4 0 -26 -14 -48 -31 -21 -17 -41 -29 -43 -27 -6 6 58
188 66 188 3 0 27 -17 52 -37z m558 -78 c29 -76 27 -79 -33 -71 -65 8 -168 36
-168 45 0 7 99 60 135 72 36 13 47 5 66 -46z m-411 -23 c0 -4 -20 -18 -45 -30
-50 -24 -60 -15 -17 17 27 21 62 28 62 13z m1385 -454 c-41 -281 -185 -557
-322 -618 -58 -25 -71 -25 -100 2 -17 16 -23 32 -23 66 0 106 100 278 385 663
l70 94 3 -49 c2 -27 -4 -98 -13 -158z"/>
</g>
</svg>
